<mxfile host="app.diagrams.net" agent="Mozilla/5.0 (Windows NT 10.0; Win64; x64; rv:139.0) Gecko/20100101 Firefox/139.0" version="27.1.6">
  <diagram name="Page-1" id="SWESCXqiHdtFnBF63pke">
    <mxGraphModel dx="2324" dy="703" grid="1" gridSize="10" guides="1" tooltips="1" connect="1" arrows="1" fold="1" page="1" pageScale="1" pageWidth="1169" pageHeight="827" background="#FFFFFF" math="0" shadow="0">
      <root>
        <mxCell id="0" />
        <mxCell id="1" parent="0" />
        <mxCell id="Ny8PjdBNpH2wIf7_yF6b-2" value="" style="ellipse;whiteSpace=wrap;html=1;aspect=fixed;" parent="1" vertex="1">
          <mxGeometry x="555" y="20" width="60" height="60" as="geometry" />
        </mxCell>
        <mxCell id="Ny8PjdBNpH2wIf7_yF6b-3" value="" style="endArrow=classic;html=1;rounded=0;exitX=0.5;exitY=1;exitDx=0;exitDy=0;" parent="1" source="Ny8PjdBNpH2wIf7_yF6b-2" edge="1">
          <mxGeometry width="50" height="50" relative="1" as="geometry">
            <mxPoint x="560" y="320" as="sourcePoint" />
            <mxPoint x="585" y="130" as="targetPoint" />
          </mxGeometry>
        </mxCell>
        <mxCell id="Ny8PjdBNpH2wIf7_yF6b-4" value="PRIJAVA U SUSTAV" style="rounded=0;whiteSpace=wrap;html=1;" parent="1" vertex="1">
          <mxGeometry x="525" y="130" width="120" height="60" as="geometry" />
        </mxCell>
        <mxCell id="Ny8PjdBNpH2wIf7_yF6b-6" value="" style="endArrow=classic;html=1;rounded=0;exitX=0.5;exitY=1;exitDx=0;exitDy=0;" parent="1" source="Ny8PjdBNpH2wIf7_yF6b-4" edge="1">
          <mxGeometry width="50" height="50" relative="1" as="geometry">
            <mxPoint x="560" y="440" as="sourcePoint" />
            <mxPoint x="585" y="270" as="targetPoint" />
          </mxGeometry>
        </mxCell>
        <mxCell id="Ny8PjdBNpH2wIf7_yF6b-11" style="edgeStyle=orthogonalEdgeStyle;rounded=0;orthogonalLoop=1;jettySize=auto;html=1;exitX=0;exitY=0.5;exitDx=0;exitDy=0;" parent="1" source="Ny8PjdBNpH2wIf7_yF6b-7" target="Ny8PjdBNpH2wIf7_yF6b-8" edge="1">
          <mxGeometry relative="1" as="geometry" />
        </mxCell>
        <mxCell id="Ny8PjdBNpH2wIf7_yF6b-94" style="edgeStyle=orthogonalEdgeStyle;rounded=0;orthogonalLoop=1;jettySize=auto;html=1;exitX=1;exitY=0.5;exitDx=0;exitDy=0;entryX=0.5;entryY=0;entryDx=0;entryDy=0;" parent="1" source="Ny8PjdBNpH2wIf7_yF6b-7" target="Ny8PjdBNpH2wIf7_yF6b-10" edge="1">
          <mxGeometry relative="1" as="geometry" />
        </mxCell>
        <mxCell id="Ny8PjdBNpH2wIf7_yF6b-139" style="edgeStyle=orthogonalEdgeStyle;rounded=0;orthogonalLoop=1;jettySize=auto;html=1;" parent="1" source="Ny8PjdBNpH2wIf7_yF6b-7" edge="1">
          <mxGeometry relative="1" as="geometry">
            <mxPoint x="584.9999999999995" y="430" as="targetPoint" />
          </mxGeometry>
        </mxCell>
        <mxCell id="Ny8PjdBNpH2wIf7_yF6b-146" value="&lt;span&gt;ADMINISTRATOR&lt;/span&gt;" style="edgeLabel;html=1;align=center;verticalAlign=middle;resizable=0;points=[];labelBackgroundColor=none;" parent="Ny8PjdBNpH2wIf7_yF6b-139" vertex="1" connectable="0">
          <mxGeometry x="0.0352" y="2" relative="1" as="geometry">
            <mxPoint y="-1" as="offset" />
          </mxGeometry>
        </mxCell>
        <mxCell id="Ny8PjdBNpH2wIf7_yF6b-7" value="TIP KORISNIKA" style="rhombus;whiteSpace=wrap;html=1;" parent="1" vertex="1">
          <mxGeometry x="537.5" y="270" width="95" height="90" as="geometry" />
        </mxCell>
        <mxCell id="Ny8PjdBNpH2wIf7_yF6b-87" style="edgeStyle=orthogonalEdgeStyle;rounded=0;orthogonalLoop=1;jettySize=auto;html=1;exitX=1;exitY=0.5;exitDx=0;exitDy=0;" parent="1" source="Ny8PjdBNpH2wIf7_yF6b-8" target="Ny8PjdBNpH2wIf7_yF6b-85" edge="1">
          <mxGeometry relative="1" as="geometry" />
        </mxCell>
        <mxCell id="Ny8PjdBNpH2wIf7_yF6b-88" style="edgeStyle=orthogonalEdgeStyle;rounded=0;orthogonalLoop=1;jettySize=auto;html=1;exitX=0;exitY=0.5;exitDx=0;exitDy=0;" parent="1" source="Ny8PjdBNpH2wIf7_yF6b-8" target="Ny8PjdBNpH2wIf7_yF6b-86" edge="1">
          <mxGeometry relative="1" as="geometry" />
        </mxCell>
        <mxCell id="Ny8PjdBNpH2wIf7_yF6b-8" value="&lt;div&gt;AKTIVNOSTI&amp;nbsp;&lt;/div&gt;&lt;div&gt;STUDENTA&lt;/div&gt;" style="rounded=0;whiteSpace=wrap;html=1;" parent="1" vertex="1">
          <mxGeometry x="90" y="380" width="120" height="60" as="geometry" />
        </mxCell>
        <mxCell id="Ny8PjdBNpH2wIf7_yF6b-38" style="edgeStyle=orthogonalEdgeStyle;rounded=0;orthogonalLoop=1;jettySize=auto;html=1;exitX=0.5;exitY=1;exitDx=0;exitDy=0;entryX=0.5;entryY=0;entryDx=0;entryDy=0;" parent="1" source="Ny8PjdBNpH2wIf7_yF6b-9" target="Ny8PjdBNpH2wIf7_yF6b-37" edge="1">
          <mxGeometry relative="1" as="geometry" />
        </mxCell>
        <mxCell id="Ny8PjdBNpH2wIf7_yF6b-9" value="POTVRDA REZERVACIJE" style="rounded=0;whiteSpace=wrap;html=1;" parent="1" vertex="1">
          <mxGeometry x="270" y="900" width="120" height="60" as="geometry" />
        </mxCell>
        <mxCell id="Ny8PjdBNpH2wIf7_yF6b-95" style="edgeStyle=orthogonalEdgeStyle;rounded=0;orthogonalLoop=1;jettySize=auto;html=1;" parent="1" source="Ny8PjdBNpH2wIf7_yF6b-10" target="Ny8PjdBNpH2wIf7_yF6b-46" edge="1">
          <mxGeometry relative="1" as="geometry" />
        </mxCell>
        <mxCell id="Ny8PjdBNpH2wIf7_yF6b-96" style="edgeStyle=orthogonalEdgeStyle;rounded=0;orthogonalLoop=1;jettySize=auto;html=1;exitX=1;exitY=0.5;exitDx=0;exitDy=0;entryX=0.5;entryY=0;entryDx=0;entryDy=0;" parent="1" source="Ny8PjdBNpH2wIf7_yF6b-10" target="Ny8PjdBNpH2wIf7_yF6b-47" edge="1">
          <mxGeometry relative="1" as="geometry" />
        </mxCell>
        <mxCell id="Ny8PjdBNpH2wIf7_yF6b-10" value="&lt;div&gt;AKTIVNOSTI&lt;/div&gt;&lt;div&gt;KNJIŽNIČARA&lt;/div&gt;" style="rounded=0;whiteSpace=wrap;html=1;" parent="1" vertex="1">
          <mxGeometry x="1440" y="384" width="120" height="60" as="geometry" />
        </mxCell>
        <mxCell id="Ny8PjdBNpH2wIf7_yF6b-31" style="edgeStyle=orthogonalEdgeStyle;rounded=0;orthogonalLoop=1;jettySize=auto;html=1;exitX=0;exitY=0.5;exitDx=0;exitDy=0;entryX=0.5;entryY=0;entryDx=0;entryDy=0;" parent="1" source="Ny8PjdBNpH2wIf7_yF6b-12" target="Ny8PjdBNpH2wIf7_yF6b-16" edge="1">
          <mxGeometry relative="1" as="geometry" />
        </mxCell>
        <mxCell id="Ny8PjdBNpH2wIf7_yF6b-32" style="edgeStyle=orthogonalEdgeStyle;rounded=0;orthogonalLoop=1;jettySize=auto;html=1;exitX=1;exitY=0.5;exitDx=0;exitDy=0;entryX=0.25;entryY=0;entryDx=0;entryDy=0;" parent="1" source="Ny8PjdBNpH2wIf7_yF6b-12" target="Ny8PjdBNpH2wIf7_yF6b-14" edge="1">
          <mxGeometry relative="1" as="geometry" />
        </mxCell>
        <mxCell id="Ny8PjdBNpH2wIf7_yF6b-12" value="&lt;div&gt;Digitalno&lt;/div&gt;&lt;div&gt;izdanje&lt;/div&gt;" style="rhombus;whiteSpace=wrap;html=1;" parent="1" vertex="1">
          <mxGeometry x="230" y="570" width="80" height="80" as="geometry" />
        </mxCell>
        <mxCell id="Ny8PjdBNpH2wIf7_yF6b-19" style="edgeStyle=orthogonalEdgeStyle;rounded=0;orthogonalLoop=1;jettySize=auto;html=1;exitX=0.5;exitY=1;exitDx=0;exitDy=0;entryX=0.5;entryY=0;entryDx=0;entryDy=0;" parent="1" source="Ny8PjdBNpH2wIf7_yF6b-14" target="Ny8PjdBNpH2wIf7_yF6b-18" edge="1">
          <mxGeometry relative="1" as="geometry" />
        </mxCell>
        <mxCell id="Ny8PjdBNpH2wIf7_yF6b-14" value="&lt;div&gt;ZAHTJEV ZA&lt;/div&gt;&lt;div&gt;REZERVIRANJE&lt;/div&gt;&lt;div&gt;KNJIGE&lt;/div&gt;" style="rounded=0;whiteSpace=wrap;html=1;" parent="1" vertex="1">
          <mxGeometry x="330" y="650" width="120" height="60" as="geometry" />
        </mxCell>
        <mxCell id="Ny8PjdBNpH2wIf7_yF6b-16" value="&lt;div&gt;POSUDBA&lt;/div&gt;&lt;div&gt;DIGITALNE KNJIGE&lt;/div&gt;" style="rounded=0;whiteSpace=wrap;html=1;" parent="1" vertex="1">
          <mxGeometry x="80" y="650" width="120" height="60" as="geometry" />
        </mxCell>
        <mxCell id="Ny8PjdBNpH2wIf7_yF6b-36" style="edgeStyle=orthogonalEdgeStyle;rounded=0;orthogonalLoop=1;jettySize=auto;html=1;exitX=1;exitY=0.5;exitDx=0;exitDy=0;entryX=0.5;entryY=0;entryDx=0;entryDy=0;" parent="1" source="Ny8PjdBNpH2wIf7_yF6b-18" edge="1">
          <mxGeometry relative="1" as="geometry">
            <mxPoint x="490" y="900" as="targetPoint" />
          </mxGeometry>
        </mxCell>
        <mxCell id="Ny8PjdBNpH2wIf7_yF6b-18" value="&lt;div&gt;Dostupna&lt;/div&gt;&lt;div&gt;knjiga&lt;/div&gt;" style="rhombus;whiteSpace=wrap;html=1;" parent="1" vertex="1">
          <mxGeometry x="350" y="770" width="80" height="80" as="geometry" />
        </mxCell>
        <mxCell id="Ny8PjdBNpH2wIf7_yF6b-23" value="NE" style="text;html=1;align=center;verticalAlign=middle;whiteSpace=wrap;rounded=0;" parent="1" vertex="1">
          <mxGeometry x="420" y="780" width="60" height="30" as="geometry" />
        </mxCell>
        <mxCell id="Ny8PjdBNpH2wIf7_yF6b-24" value="DA" style="text;html=1;align=center;verticalAlign=middle;whiteSpace=wrap;rounded=0;" parent="1" vertex="1">
          <mxGeometry x="310" y="780" width="60" height="30" as="geometry" />
        </mxCell>
        <mxCell id="Ny8PjdBNpH2wIf7_yF6b-26" value="NE" style="text;html=1;align=center;verticalAlign=middle;whiteSpace=wrap;rounded=0;" parent="1" vertex="1">
          <mxGeometry x="310" y="580" width="60" height="30" as="geometry" />
        </mxCell>
        <mxCell id="Ny8PjdBNpH2wIf7_yF6b-22" value="DA" style="text;html=1;align=center;verticalAlign=middle;whiteSpace=wrap;rounded=0;" parent="1" vertex="1">
          <mxGeometry x="140" y="580" width="60" height="30" as="geometry" />
        </mxCell>
        <mxCell id="Ny8PjdBNpH2wIf7_yF6b-33" value="STUDENT" style="text;html=1;align=center;verticalAlign=middle;whiteSpace=wrap;rounded=0;" parent="1" vertex="1">
          <mxGeometry x="370" y="280" width="60" height="30" as="geometry" />
        </mxCell>
        <mxCell id="Ny8PjdBNpH2wIf7_yF6b-34" style="edgeStyle=orthogonalEdgeStyle;rounded=0;orthogonalLoop=1;jettySize=auto;html=1;exitX=0;exitY=0.5;exitDx=0;exitDy=0;entryX=0.401;entryY=-0.037;entryDx=0;entryDy=0;entryPerimeter=0;" parent="1" source="Ny8PjdBNpH2wIf7_yF6b-18" target="Ny8PjdBNpH2wIf7_yF6b-9" edge="1">
          <mxGeometry relative="1" as="geometry" />
        </mxCell>
        <mxCell id="Ny8PjdBNpH2wIf7_yF6b-123" style="edgeStyle=orthogonalEdgeStyle;rounded=0;orthogonalLoop=1;jettySize=auto;html=1;exitX=0.5;exitY=1;exitDx=0;exitDy=0;entryX=0.5;entryY=0;entryDx=0;entryDy=0;" parent="1" source="Ny8PjdBNpH2wIf7_yF6b-35" target="Ny8PjdBNpH2wIf7_yF6b-122" edge="1">
          <mxGeometry relative="1" as="geometry" />
        </mxCell>
        <mxCell id="Ny8PjdBNpH2wIf7_yF6b-35" value="&lt;div&gt;STAVLJANJE NA&lt;/div&gt;&lt;div&gt;LISTU ČEKANJA&lt;/div&gt;" style="rounded=0;whiteSpace=wrap;html=1;" parent="1" vertex="1">
          <mxGeometry x="417.5" y="900" width="120" height="60" as="geometry" />
        </mxCell>
        <mxCell id="Ny8PjdBNpH2wIf7_yF6b-40" style="edgeStyle=orthogonalEdgeStyle;rounded=0;orthogonalLoop=1;jettySize=auto;html=1;exitX=0.5;exitY=1;exitDx=0;exitDy=0;entryX=0.5;entryY=0;entryDx=0;entryDy=0;" parent="1" source="Ny8PjdBNpH2wIf7_yF6b-37" target="Ny8PjdBNpH2wIf7_yF6b-39" edge="1">
          <mxGeometry relative="1" as="geometry" />
        </mxCell>
        <mxCell id="Ny8PjdBNpH2wIf7_yF6b-37" value="PREGLED REZERVACIJE" style="rounded=0;whiteSpace=wrap;html=1;" parent="1" vertex="1">
          <mxGeometry x="270" y="1000" width="120" height="60" as="geometry" />
        </mxCell>
        <mxCell id="Ny8PjdBNpH2wIf7_yF6b-125" style="edgeStyle=orthogonalEdgeStyle;rounded=0;orthogonalLoop=1;jettySize=auto;html=1;exitX=0.5;exitY=1;exitDx=0;exitDy=0;entryX=0.5;entryY=0;entryDx=0;entryDy=0;" parent="1" source="Ny8PjdBNpH2wIf7_yF6b-39" target="Ny8PjdBNpH2wIf7_yF6b-124" edge="1">
          <mxGeometry relative="1" as="geometry" />
        </mxCell>
        <mxCell id="Ny8PjdBNpH2wIf7_yF6b-39" value="&lt;div&gt;PREGLED&lt;/div&gt;&lt;div&gt;POSUDBE&lt;/div&gt;" style="rounded=0;whiteSpace=wrap;html=1;" parent="1" vertex="1">
          <mxGeometry x="270" y="1100" width="120" height="60" as="geometry" />
        </mxCell>
        <mxCell id="Ny8PjdBNpH2wIf7_yF6b-43" value="KNJIŽNIČAR" style="text;html=1;align=center;verticalAlign=middle;whiteSpace=wrap;rounded=0;" parent="1" vertex="1">
          <mxGeometry x="810" y="280" width="60" height="30" as="geometry" />
        </mxCell>
        <mxCell id="Ny8PjdBNpH2wIf7_yF6b-52" style="edgeStyle=orthogonalEdgeStyle;rounded=0;orthogonalLoop=1;jettySize=auto;html=1;exitX=0.5;exitY=1;exitDx=0;exitDy=0;" parent="1" source="Ny8PjdBNpH2wIf7_yF6b-45" target="Ny8PjdBNpH2wIf7_yF6b-51" edge="1">
          <mxGeometry relative="1" as="geometry" />
        </mxCell>
        <mxCell id="Ny8PjdBNpH2wIf7_yF6b-45" value="UPRAVLJANJE ZAHTJEVIMA STUDENATA" style="rounded=0;whiteSpace=wrap;html=1;" parent="1" vertex="1">
          <mxGeometry x="1140" y="501" width="120" height="60" as="geometry" />
        </mxCell>
        <mxCell id="Ny8PjdBNpH2wIf7_yF6b-98" style="edgeStyle=orthogonalEdgeStyle;rounded=0;orthogonalLoop=1;jettySize=auto;html=1;exitX=0.5;exitY=1;exitDx=0;exitDy=0;" parent="1" source="Ny8PjdBNpH2wIf7_yF6b-46" edge="1">
          <mxGeometry relative="1" as="geometry">
            <mxPoint x="1500.0000000000005" y="610" as="targetPoint" />
          </mxGeometry>
        </mxCell>
        <mxCell id="Ny8PjdBNpH2wIf7_yF6b-46" value="&lt;div&gt;UPRAVLJANJE KNJIŽNIČNIM FONDOM&lt;/div&gt;" style="rounded=0;whiteSpace=wrap;html=1;" parent="1" vertex="1">
          <mxGeometry x="1440" y="510" width="120" height="60" as="geometry" />
        </mxCell>
        <mxCell id="Ny8PjdBNpH2wIf7_yF6b-106" style="edgeStyle=orthogonalEdgeStyle;rounded=0;orthogonalLoop=1;jettySize=auto;html=1;exitX=0.5;exitY=1;exitDx=0;exitDy=0;" parent="1" source="Ny8PjdBNpH2wIf7_yF6b-47" target="Ny8PjdBNpH2wIf7_yF6b-105" edge="1">
          <mxGeometry relative="1" as="geometry" />
        </mxCell>
        <mxCell id="Ny8PjdBNpH2wIf7_yF6b-47" value="UPRAVLJANJE EVIDENCIJOM O NABAVKAMA, DONACIJAMA I OTPISIMA" style="rounded=0;whiteSpace=wrap;html=1;" parent="1" vertex="1">
          <mxGeometry x="1710" y="490" width="140" height="80" as="geometry" />
        </mxCell>
        <mxCell id="Ny8PjdBNpH2wIf7_yF6b-48" style="edgeStyle=orthogonalEdgeStyle;rounded=0;orthogonalLoop=1;jettySize=auto;html=1;exitX=0;exitY=0.5;exitDx=0;exitDy=0;entryX=0.559;entryY=0.001;entryDx=0;entryDy=0;entryPerimeter=0;" parent="1" source="Ny8PjdBNpH2wIf7_yF6b-10" target="Ny8PjdBNpH2wIf7_yF6b-45" edge="1">
          <mxGeometry relative="1" as="geometry" />
        </mxCell>
        <mxCell id="Ny8PjdBNpH2wIf7_yF6b-55" style="edgeStyle=orthogonalEdgeStyle;rounded=0;orthogonalLoop=1;jettySize=auto;html=1;exitX=0;exitY=0.5;exitDx=0;exitDy=0;entryX=0.5;entryY=0;entryDx=0;entryDy=0;" parent="1" source="Ny8PjdBNpH2wIf7_yF6b-51" edge="1">
          <mxGeometry relative="1" as="geometry">
            <mxPoint x="1080" y="746" as="targetPoint" />
          </mxGeometry>
        </mxCell>
        <mxCell id="Ny8PjdBNpH2wIf7_yF6b-51" value="Vrsta zahtjeva" style="rhombus;whiteSpace=wrap;html=1;" parent="1" vertex="1">
          <mxGeometry x="1160" y="636" width="80" height="80" as="geometry" />
        </mxCell>
        <mxCell id="Ny8PjdBNpH2wIf7_yF6b-157" style="edgeStyle=orthogonalEdgeStyle;rounded=0;orthogonalLoop=1;jettySize=auto;html=1;exitX=0.5;exitY=1;exitDx=0;exitDy=0;entryX=1;entryY=0.25;entryDx=0;entryDy=0;" parent="1" source="Ny8PjdBNpH2wIf7_yF6b-53" target="Ny8PjdBNpH2wIf7_yF6b-149" edge="1">
          <mxGeometry relative="1" as="geometry" />
        </mxCell>
        <mxCell id="Ny8PjdBNpH2wIf7_yF6b-53" value="UNOS POSUDBE FIZIČKE KNJIGE" style="rounded=0;whiteSpace=wrap;html=1;" parent="1" vertex="1">
          <mxGeometry x="1230" y="746" width="120" height="60" as="geometry" />
        </mxCell>
        <mxCell id="Ny8PjdBNpH2wIf7_yF6b-57" value="REZERVACIJA" style="text;html=1;align=center;verticalAlign=middle;whiteSpace=wrap;rounded=0;" parent="1" vertex="1">
          <mxGeometry x="1090" y="646" width="60" height="30" as="geometry" />
        </mxCell>
        <mxCell id="Ny8PjdBNpH2wIf7_yF6b-58" value="POSUDBA" style="text;html=1;align=center;verticalAlign=middle;whiteSpace=wrap;rounded=0;" parent="1" vertex="1">
          <mxGeometry x="1250" y="646" width="60" height="30" as="geometry" />
        </mxCell>
        <mxCell id="Ny8PjdBNpH2wIf7_yF6b-59" style="edgeStyle=orthogonalEdgeStyle;rounded=0;orthogonalLoop=1;jettySize=auto;html=1;exitX=0.5;exitY=1;exitDx=0;exitDy=0;entryX=0.5;entryY=0;entryDx=0;entryDy=0;" parent="1" source="Ny8PjdBNpH2wIf7_yF6b-60" edge="1">
          <mxGeometry relative="1" as="geometry">
            <mxPoint x="950" y="986" as="targetPoint" />
          </mxGeometry>
        </mxCell>
        <mxCell id="Ny8PjdBNpH2wIf7_yF6b-60" value="POTVRDA REZERVACIJE" style="rounded=0;whiteSpace=wrap;html=1;" parent="1" vertex="1">
          <mxGeometry x="890" y="876" width="120" height="60" as="geometry" />
        </mxCell>
        <mxCell id="Ny8PjdBNpH2wIf7_yF6b-62" value="NE" style="text;html=1;align=center;verticalAlign=middle;whiteSpace=wrap;rounded=0;" parent="1" vertex="1">
          <mxGeometry x="1100" y="761" width="60" height="30" as="geometry" />
        </mxCell>
        <mxCell id="Ny8PjdBNpH2wIf7_yF6b-63" value="DA" style="text;html=1;align=center;verticalAlign=middle;whiteSpace=wrap;rounded=0;" parent="1" vertex="1">
          <mxGeometry x="950" y="756" width="60" height="30" as="geometry" />
        </mxCell>
        <mxCell id="Ny8PjdBNpH2wIf7_yF6b-155" style="edgeStyle=orthogonalEdgeStyle;rounded=0;orthogonalLoop=1;jettySize=auto;html=1;exitX=0.5;exitY=1;exitDx=0;exitDy=0;entryX=1;entryY=0.75;entryDx=0;entryDy=0;" parent="1" source="Ny8PjdBNpH2wIf7_yF6b-65" target="Ny8PjdBNpH2wIf7_yF6b-149" edge="1">
          <mxGeometry relative="1" as="geometry" />
        </mxCell>
        <mxCell id="Ny8PjdBNpH2wIf7_yF6b-65" value="&lt;div&gt;STAVLJANJE STUDENTA NA&lt;/div&gt;&lt;div&gt;LISTU ČEKANJA&lt;/div&gt;" style="rounded=0;whiteSpace=wrap;html=1;" parent="1" vertex="1">
          <mxGeometry x="1050" y="876" width="120" height="60" as="geometry" />
        </mxCell>
        <mxCell id="Ny8PjdBNpH2wIf7_yF6b-154" style="edgeStyle=orthogonalEdgeStyle;rounded=0;orthogonalLoop=1;jettySize=auto;html=1;exitX=0.5;exitY=1;exitDx=0;exitDy=0;entryX=1;entryY=0.5;entryDx=0;entryDy=0;" parent="1" source="Ny8PjdBNpH2wIf7_yF6b-68" target="Ny8PjdBNpH2wIf7_yF6b-149" edge="1">
          <mxGeometry relative="1" as="geometry" />
        </mxCell>
        <mxCell id="Ny8PjdBNpH2wIf7_yF6b-68" value="&lt;div&gt;UNOS POSUDBE U&amp;nbsp;&lt;/div&gt;&lt;div&gt;SUSTAV&lt;/div&gt;" style="rounded=0;whiteSpace=wrap;html=1;" parent="1" vertex="1">
          <mxGeometry x="890" y="986" width="120" height="60" as="geometry" />
        </mxCell>
        <mxCell id="Ny8PjdBNpH2wIf7_yF6b-70" style="edgeStyle=orthogonalEdgeStyle;rounded=0;orthogonalLoop=1;jettySize=auto;html=1;exitX=0;exitY=0.5;exitDx=0;exitDy=0;entryX=0.5;entryY=0;entryDx=0;entryDy=0;" parent="1" source="Ny8PjdBNpH2wIf7_yF6b-69" target="Ny8PjdBNpH2wIf7_yF6b-60" edge="1">
          <mxGeometry relative="1" as="geometry" />
        </mxCell>
        <mxCell id="Ny8PjdBNpH2wIf7_yF6b-71" style="edgeStyle=orthogonalEdgeStyle;rounded=0;orthogonalLoop=1;jettySize=auto;html=1;exitX=1;exitY=0.5;exitDx=0;exitDy=0;entryX=0.75;entryY=0;entryDx=0;entryDy=0;" parent="1" source="Ny8PjdBNpH2wIf7_yF6b-69" target="Ny8PjdBNpH2wIf7_yF6b-65" edge="1">
          <mxGeometry relative="1" as="geometry" />
        </mxCell>
        <mxCell id="Ny8PjdBNpH2wIf7_yF6b-69" value="&lt;div&gt;Dostupna&lt;/div&gt;&lt;div&gt;knjiga&lt;/div&gt;" style="rhombus;whiteSpace=wrap;html=1;" parent="1" vertex="1">
          <mxGeometry x="1040" y="746" width="80" height="80" as="geometry" />
        </mxCell>
        <mxCell id="Ny8PjdBNpH2wIf7_yF6b-72" style="edgeStyle=orthogonalEdgeStyle;rounded=0;orthogonalLoop=1;jettySize=auto;html=1;exitX=1;exitY=0.5;exitDx=0;exitDy=0;entryX=0.599;entryY=-0.017;entryDx=0;entryDy=0;entryPerimeter=0;" parent="1" source="Ny8PjdBNpH2wIf7_yF6b-51" target="Ny8PjdBNpH2wIf7_yF6b-53" edge="1">
          <mxGeometry relative="1" as="geometry" />
        </mxCell>
        <mxCell id="Ny8PjdBNpH2wIf7_yF6b-77" style="edgeStyle=orthogonalEdgeStyle;rounded=0;orthogonalLoop=1;jettySize=auto;html=1;exitX=0;exitY=0.5;exitDx=0;exitDy=0;entryX=0.5;entryY=0;entryDx=0;entryDy=0;" parent="1" source="Ny8PjdBNpH2wIf7_yF6b-73" target="Ny8PjdBNpH2wIf7_yF6b-76" edge="1">
          <mxGeometry relative="1" as="geometry" />
        </mxCell>
        <mxCell id="Ny8PjdBNpH2wIf7_yF6b-78" style="edgeStyle=orthogonalEdgeStyle;rounded=0;orthogonalLoop=1;jettySize=auto;html=1;exitX=1;exitY=0.5;exitDx=0;exitDy=0;entryX=0.5;entryY=0;entryDx=0;entryDy=0;" parent="1" source="Ny8PjdBNpH2wIf7_yF6b-73" target="Ny8PjdBNpH2wIf7_yF6b-75" edge="1">
          <mxGeometry relative="1" as="geometry" />
        </mxCell>
        <mxCell id="Ny8PjdBNpH2wIf7_yF6b-73" value="&lt;div&gt;Kašnjenje pri&lt;/div&gt;&lt;div&gt;povratu knjige&lt;/div&gt;" style="rhombus;whiteSpace=wrap;html=1;" parent="1" vertex="1">
          <mxGeometry x="275" y="1290" width="100" height="90" as="geometry" />
        </mxCell>
        <mxCell id="Ny8PjdBNpH2wIf7_yF6b-153" style="edgeStyle=orthogonalEdgeStyle;rounded=0;orthogonalLoop=1;jettySize=auto;html=1;exitX=0.5;exitY=1;exitDx=0;exitDy=0;entryX=0;entryY=1;entryDx=0;entryDy=0;" parent="1" source="Ny8PjdBNpH2wIf7_yF6b-75" target="Ny8PjdBNpH2wIf7_yF6b-149" edge="1">
          <mxGeometry relative="1" as="geometry" />
        </mxCell>
        <mxCell id="Ny8PjdBNpH2wIf7_yF6b-75" value="PREGLED POSUDBE" style="rounded=0;whiteSpace=wrap;html=1;" parent="1" vertex="1">
          <mxGeometry x="375" y="1400" width="120" height="60" as="geometry" />
        </mxCell>
        <mxCell id="Ny8PjdBNpH2wIf7_yF6b-82" style="edgeStyle=orthogonalEdgeStyle;rounded=0;orthogonalLoop=1;jettySize=auto;html=1;entryX=0.5;entryY=0;entryDx=0;entryDy=0;" parent="1" source="Ny8PjdBNpH2wIf7_yF6b-76" target="Ny8PjdBNpH2wIf7_yF6b-81" edge="1">
          <mxGeometry relative="1" as="geometry" />
        </mxCell>
        <mxCell id="Ny8PjdBNpH2wIf7_yF6b-76" value="BLOKIRAN PRISTUP" style="rounded=0;whiteSpace=wrap;html=1;" parent="1" vertex="1">
          <mxGeometry x="165" y="1400" width="120" height="60" as="geometry" />
        </mxCell>
        <mxCell id="Ny8PjdBNpH2wIf7_yF6b-79" value="NE" style="text;html=1;align=center;verticalAlign=middle;whiteSpace=wrap;rounded=0;" parent="1" vertex="1">
          <mxGeometry x="375" y="1310" width="60" height="30" as="geometry" />
        </mxCell>
        <mxCell id="Ny8PjdBNpH2wIf7_yF6b-80" value="DA" style="text;html=1;align=center;verticalAlign=middle;whiteSpace=wrap;rounded=0;" parent="1" vertex="1">
          <mxGeometry x="225" y="1310" width="60" height="30" as="geometry" />
        </mxCell>
        <mxCell id="Ny8PjdBNpH2wIf7_yF6b-84" style="edgeStyle=orthogonalEdgeStyle;rounded=0;orthogonalLoop=1;jettySize=auto;html=1;exitX=0.5;exitY=1;exitDx=0;exitDy=0;" parent="1" source="Ny8PjdBNpH2wIf7_yF6b-81" target="Ny8PjdBNpH2wIf7_yF6b-83" edge="1">
          <mxGeometry relative="1" as="geometry" />
        </mxCell>
        <mxCell id="Ny8PjdBNpH2wIf7_yF6b-81" value="PODMIRENJE OBVEZA" style="rounded=0;whiteSpace=wrap;html=1;" parent="1" vertex="1">
          <mxGeometry x="165" y="1510" width="120" height="60" as="geometry" />
        </mxCell>
        <mxCell id="Ny8PjdBNpH2wIf7_yF6b-152" style="edgeStyle=orthogonalEdgeStyle;rounded=0;orthogonalLoop=1;jettySize=auto;html=1;exitX=0.5;exitY=1;exitDx=0;exitDy=0;entryX=0;entryY=0.25;entryDx=0;entryDy=0;" parent="1" source="Ny8PjdBNpH2wIf7_yF6b-83" target="Ny8PjdBNpH2wIf7_yF6b-149" edge="1">
          <mxGeometry relative="1" as="geometry" />
        </mxCell>
        <mxCell id="Ny8PjdBNpH2wIf7_yF6b-83" value="&lt;div&gt;PRISTUP&lt;/div&gt;&lt;div&gt;SUSTAVU&lt;/div&gt;" style="rounded=0;whiteSpace=wrap;html=1;" parent="1" vertex="1">
          <mxGeometry x="165" y="1610" width="120" height="60" as="geometry" />
        </mxCell>
        <mxCell id="Ny8PjdBNpH2wIf7_yF6b-89" style="edgeStyle=orthogonalEdgeStyle;rounded=0;orthogonalLoop=1;jettySize=auto;html=1;exitX=0.5;exitY=1;exitDx=0;exitDy=0;entryX=0.5;entryY=0;entryDx=0;entryDy=0;" parent="1" source="Ny8PjdBNpH2wIf7_yF6b-85" target="Ny8PjdBNpH2wIf7_yF6b-12" edge="1">
          <mxGeometry relative="1" as="geometry" />
        </mxCell>
        <mxCell id="Ny8PjdBNpH2wIf7_yF6b-85" value="&lt;div&gt;PRETRAŽIVANJE&lt;/div&gt;&lt;div&gt;KNJIGA&lt;/div&gt;" style="rounded=0;whiteSpace=wrap;html=1;" parent="1" vertex="1">
          <mxGeometry x="210" y="474" width="120" height="60" as="geometry" />
        </mxCell>
        <mxCell id="Ny8PjdBNpH2wIf7_yF6b-129" style="edgeStyle=orthogonalEdgeStyle;rounded=0;orthogonalLoop=1;jettySize=auto;html=1;exitX=0.5;exitY=1;exitDx=0;exitDy=0;" parent="1" source="Ny8PjdBNpH2wIf7_yF6b-86" target="Ny8PjdBNpH2wIf7_yF6b-128" edge="1">
          <mxGeometry relative="1" as="geometry" />
        </mxCell>
        <mxCell id="Ny8PjdBNpH2wIf7_yF6b-86" value="&lt;div&gt;PREGLED&lt;/div&gt;&lt;div&gt;AKTIVNIH I PRETHODNIH POSUDBII&lt;/div&gt;" style="rounded=0;whiteSpace=wrap;html=1;" parent="1" vertex="1">
          <mxGeometry x="-190" y="460" width="120" height="60" as="geometry" />
        </mxCell>
        <mxCell id="Ny8PjdBNpH2wIf7_yF6b-140" style="edgeStyle=orthogonalEdgeStyle;rounded=0;orthogonalLoop=1;jettySize=auto;html=1;exitX=0.5;exitY=1;exitDx=0;exitDy=0;" parent="1" source="Ny8PjdBNpH2wIf7_yF6b-91" edge="1">
          <mxGeometry relative="1" as="geometry">
            <mxPoint x="585.1428571428569" y="530" as="targetPoint" />
          </mxGeometry>
        </mxCell>
        <mxCell id="Ny8PjdBNpH2wIf7_yF6b-91" value="&lt;div&gt;AKTIVNOSTI&lt;/div&gt;&lt;div&gt;ADMINISTRATORA&lt;/div&gt;" style="rounded=0;whiteSpace=wrap;html=1;" parent="1" vertex="1">
          <mxGeometry x="525" y="430" width="120" height="60" as="geometry" />
        </mxCell>
        <mxCell id="Ny8PjdBNpH2wIf7_yF6b-102" style="edgeStyle=orthogonalEdgeStyle;rounded=0;orthogonalLoop=1;jettySize=auto;html=1;exitX=0.5;exitY=1;exitDx=0;exitDy=0;" parent="1" source="Ny8PjdBNpH2wIf7_yF6b-100" target="Ny8PjdBNpH2wIf7_yF6b-103" edge="1">
          <mxGeometry relative="1" as="geometry">
            <mxPoint x="1499.8181818181815" y="720" as="targetPoint" />
          </mxGeometry>
        </mxCell>
        <mxCell id="Ny8PjdBNpH2wIf7_yF6b-100" value="UNOS/UREĐIVANJE KNJIGA" style="rounded=0;whiteSpace=wrap;html=1;" parent="1" vertex="1">
          <mxGeometry x="1440" y="610" width="120" height="60" as="geometry" />
        </mxCell>
        <mxCell id="Ny8PjdBNpH2wIf7_yF6b-103" value="GENERIRANJE IZVJEŠTAJA O NAJČITANIJIM KNJIGAMA" style="rounded=0;whiteSpace=wrap;html=1;" parent="1" vertex="1">
          <mxGeometry x="1439.9981818181816" y="726" width="120" height="60" as="geometry" />
        </mxCell>
        <mxCell id="Ny8PjdBNpH2wIf7_yF6b-109" style="edgeStyle=orthogonalEdgeStyle;rounded=0;orthogonalLoop=1;jettySize=auto;html=1;exitX=1;exitY=0.5;exitDx=0;exitDy=0;entryX=0.5;entryY=0;entryDx=0;entryDy=0;" parent="1" source="Ny8PjdBNpH2wIf7_yF6b-105" target="Ny8PjdBNpH2wIf7_yF6b-107" edge="1">
          <mxGeometry relative="1" as="geometry" />
        </mxCell>
        <mxCell id="Ny8PjdBNpH2wIf7_yF6b-110" style="edgeStyle=orthogonalEdgeStyle;rounded=0;orthogonalLoop=1;jettySize=auto;html=1;exitX=0;exitY=0.5;exitDx=0;exitDy=0;entryX=0.25;entryY=0;entryDx=0;entryDy=0;" parent="1" source="Ny8PjdBNpH2wIf7_yF6b-105" target="Ny8PjdBNpH2wIf7_yF6b-108" edge="1">
          <mxGeometry relative="1" as="geometry" />
        </mxCell>
        <mxCell id="Ny8PjdBNpH2wIf7_yF6b-105" value="Vrsta evidencije" style="rhombus;whiteSpace=wrap;html=1;" parent="1" vertex="1">
          <mxGeometry x="1725" y="626.5" width="110" height="99" as="geometry" />
        </mxCell>
        <mxCell id="Ny8PjdBNpH2wIf7_yF6b-113" style="edgeStyle=orthogonalEdgeStyle;rounded=0;orthogonalLoop=1;jettySize=auto;html=1;exitX=0.5;exitY=1;exitDx=0;exitDy=0;" parent="1" source="Ny8PjdBNpH2wIf7_yF6b-107" target="Ny8PjdBNpH2wIf7_yF6b-114" edge="1">
          <mxGeometry relative="1" as="geometry">
            <mxPoint x="1894.689655172414" y="880" as="targetPoint" />
          </mxGeometry>
        </mxCell>
        <mxCell id="Ny8PjdBNpH2wIf7_yF6b-107" value="UNOS OTPISA KNJIGE" style="rounded=0;whiteSpace=wrap;html=1;" parent="1" vertex="1">
          <mxGeometry x="1835" y="756" width="120" height="60" as="geometry" />
        </mxCell>
        <mxCell id="Ny8PjdBNpH2wIf7_yF6b-121" style="edgeStyle=orthogonalEdgeStyle;rounded=0;orthogonalLoop=1;jettySize=auto;html=1;exitX=0.25;exitY=1;exitDx=0;exitDy=0;entryX=0;entryY=0.5;entryDx=0;entryDy=0;" parent="1" source="Ny8PjdBNpH2wIf7_yF6b-108" target="Ny8PjdBNpH2wIf7_yF6b-117" edge="1">
          <mxGeometry relative="1" as="geometry" />
        </mxCell>
        <mxCell id="Ny8PjdBNpH2wIf7_yF6b-108" value="UNOS NABAVKE (ILI DONACIJE)" style="rounded=0;whiteSpace=wrap;html=1;" parent="1" vertex="1">
          <mxGeometry x="1634" y="756" width="120" height="60" as="geometry" />
        </mxCell>
        <mxCell id="Ny8PjdBNpH2wIf7_yF6b-111" value="NABAVKA" style="text;html=1;align=center;verticalAlign=middle;whiteSpace=wrap;rounded=0;" parent="1" vertex="1">
          <mxGeometry x="1664" y="650" width="60" height="30" as="geometry" />
        </mxCell>
        <mxCell id="Ny8PjdBNpH2wIf7_yF6b-112" value="OTPIS" style="text;html=1;align=center;verticalAlign=middle;whiteSpace=wrap;rounded=0;" parent="1" vertex="1">
          <mxGeometry x="1835" y="650" width="60" height="30" as="geometry" />
        </mxCell>
        <mxCell id="Ny8PjdBNpH2wIf7_yF6b-114" value="BRISANJE KNJIGE" style="rounded=0;whiteSpace=wrap;html=1;" parent="1" vertex="1">
          <mxGeometry x="1834.689655172414" y="850" width="120" height="60" as="geometry" />
        </mxCell>
        <mxCell id="Ny8PjdBNpH2wIf7_yF6b-158" style="edgeStyle=orthogonalEdgeStyle;rounded=0;orthogonalLoop=1;jettySize=auto;html=1;exitX=0.5;exitY=1;exitDx=0;exitDy=0;entryX=1;entryY=1;entryDx=0;entryDy=0;" parent="1" source="Ny8PjdBNpH2wIf7_yF6b-117" target="Ny8PjdBNpH2wIf7_yF6b-149" edge="1">
          <mxGeometry relative="1" as="geometry" />
        </mxCell>
        <mxCell id="Ny8PjdBNpH2wIf7_yF6b-117" value="GENERIRANJE IZVJEŠTAJA O NABAVKAMA, DONACIJAMA I OTPISIMA" style="rounded=0;whiteSpace=wrap;html=1;" parent="1" vertex="1">
          <mxGeometry x="1690" y="986" width="144.69" height="84" as="geometry" />
        </mxCell>
        <mxCell id="Ny8PjdBNpH2wIf7_yF6b-119" style="edgeStyle=orthogonalEdgeStyle;rounded=0;orthogonalLoop=1;jettySize=auto;html=1;exitX=0.5;exitY=1;exitDx=0;exitDy=0;entryX=1.004;entryY=0.616;entryDx=0;entryDy=0;entryPerimeter=0;" parent="1" source="Ny8PjdBNpH2wIf7_yF6b-114" target="Ny8PjdBNpH2wIf7_yF6b-117" edge="1">
          <mxGeometry relative="1" as="geometry" />
        </mxCell>
        <mxCell id="Ny8PjdBNpH2wIf7_yF6b-122" value="OBAVIJEST O DOSTUPNOSTI KNJIGE" style="rounded=0;whiteSpace=wrap;html=1;" parent="1" vertex="1">
          <mxGeometry x="417.5" y="1000" width="120" height="60" as="geometry" />
        </mxCell>
        <mxCell id="Ny8PjdBNpH2wIf7_yF6b-127" style="edgeStyle=orthogonalEdgeStyle;rounded=0;orthogonalLoop=1;jettySize=auto;html=1;exitX=0.5;exitY=1;exitDx=0;exitDy=0;entryX=0.5;entryY=0;entryDx=0;entryDy=0;" parent="1" source="Ny8PjdBNpH2wIf7_yF6b-124" target="Ny8PjdBNpH2wIf7_yF6b-73" edge="1">
          <mxGeometry relative="1" as="geometry" />
        </mxCell>
        <mxCell id="Ny8PjdBNpH2wIf7_yF6b-124" value="OBAVIJEST O PRIBLIŽAVANJU DATUMA POVRATA" style="rounded=0;whiteSpace=wrap;html=1;" parent="1" vertex="1">
          <mxGeometry x="270" y="1200" width="120" height="60" as="geometry" />
        </mxCell>
        <mxCell id="Ny8PjdBNpH2wIf7_yF6b-130" style="edgeStyle=orthogonalEdgeStyle;rounded=0;orthogonalLoop=1;jettySize=auto;html=1;exitX=0.5;exitY=1;exitDx=0;exitDy=0;" parent="1" source="Ny8PjdBNpH2wIf7_yF6b-128" target="Ny8PjdBNpH2wIf7_yF6b-131" edge="1">
          <mxGeometry relative="1" as="geometry">
            <mxPoint x="-129.71428571428578" y="680" as="targetPoint" />
          </mxGeometry>
        </mxCell>
        <mxCell id="Ny8PjdBNpH2wIf7_yF6b-128" value="ZAHTJEV ZA PRODUŽENJE POSUDBE" style="rounded=0;whiteSpace=wrap;html=1;" parent="1" vertex="1">
          <mxGeometry x="-190" y="570" width="120" height="60" as="geometry" />
        </mxCell>
        <mxCell id="Ny8PjdBNpH2wIf7_yF6b-134" style="edgeStyle=orthogonalEdgeStyle;rounded=0;orthogonalLoop=1;jettySize=auto;html=1;exitX=0;exitY=0.5;exitDx=0;exitDy=0;entryX=0.5;entryY=0;entryDx=0;entryDy=0;" parent="1" source="Ny8PjdBNpH2wIf7_yF6b-131" target="Ny8PjdBNpH2wIf7_yF6b-133" edge="1">
          <mxGeometry relative="1" as="geometry" />
        </mxCell>
        <mxCell id="Ny8PjdBNpH2wIf7_yF6b-135" style="edgeStyle=orthogonalEdgeStyle;rounded=0;orthogonalLoop=1;jettySize=auto;html=1;exitX=1;exitY=0.5;exitDx=0;exitDy=0;entryX=0.5;entryY=0;entryDx=0;entryDy=0;" parent="1" source="Ny8PjdBNpH2wIf7_yF6b-131" target="Ny8PjdBNpH2wIf7_yF6b-132" edge="1">
          <mxGeometry relative="1" as="geometry" />
        </mxCell>
        <mxCell id="Ny8PjdBNpH2wIf7_yF6b-131" value="Zahtjev odobren" style="rhombus;whiteSpace=wrap;html=1;" parent="1" vertex="1">
          <mxGeometry x="-170.00428571428577" y="690" width="80" height="80" as="geometry" />
        </mxCell>
        <mxCell id="Ny8PjdBNpH2wIf7_yF6b-151" style="edgeStyle=orthogonalEdgeStyle;rounded=0;orthogonalLoop=1;jettySize=auto;html=1;exitX=0.5;exitY=1;exitDx=0;exitDy=0;entryX=0;entryY=0.25;entryDx=0;entryDy=0;" parent="1" source="Ny8PjdBNpH2wIf7_yF6b-132" target="Ny8PjdBNpH2wIf7_yF6b-149" edge="1">
          <mxGeometry relative="1" as="geometry" />
        </mxCell>
        <mxCell id="Ny8PjdBNpH2wIf7_yF6b-132" value="PRESTANAK PRISTUPA KNJIZI" style="rounded=0;whiteSpace=wrap;html=1;" parent="1" vertex="1">
          <mxGeometry x="-90" y="800" width="120" height="60" as="geometry" />
        </mxCell>
        <mxCell id="Ny8PjdBNpH2wIf7_yF6b-150" style="edgeStyle=orthogonalEdgeStyle;rounded=0;orthogonalLoop=1;jettySize=auto;html=1;exitX=0.5;exitY=1;exitDx=0;exitDy=0;entryX=0;entryY=0.75;entryDx=0;entryDy=0;" parent="1" source="Ny8PjdBNpH2wIf7_yF6b-133" target="Ny8PjdBNpH2wIf7_yF6b-149" edge="1">
          <mxGeometry relative="1" as="geometry" />
        </mxCell>
        <mxCell id="Ny8PjdBNpH2wIf7_yF6b-133" value="PRODUŽEN PRISTUP KNJIZI" style="rounded=0;whiteSpace=wrap;html=1;" parent="1" vertex="1">
          <mxGeometry x="-310" y="800" width="120" height="60" as="geometry" />
        </mxCell>
        <mxCell id="Ny8PjdBNpH2wIf7_yF6b-136" value="DA" style="text;html=1;align=center;verticalAlign=middle;whiteSpace=wrap;rounded=0;" parent="1" vertex="1">
          <mxGeometry x="-250" y="695.5" width="60" height="30" as="geometry" />
        </mxCell>
        <mxCell id="Ny8PjdBNpH2wIf7_yF6b-138" value="NE" style="text;html=1;align=center;verticalAlign=middle;whiteSpace=wrap;rounded=0;" parent="1" vertex="1">
          <mxGeometry x="-80" y="696" width="60" height="30" as="geometry" />
        </mxCell>
        <mxCell id="Ny8PjdBNpH2wIf7_yF6b-142" style="edgeStyle=orthogonalEdgeStyle;rounded=0;orthogonalLoop=1;jettySize=auto;html=1;exitX=0.5;exitY=1;exitDx=0;exitDy=0;" parent="1" target="Ny8PjdBNpH2wIf7_yF6b-143" edge="1">
          <mxGeometry relative="1" as="geometry">
            <mxPoint x="585.1428571428573" y="640" as="targetPoint" />
            <mxPoint x="585.1428571428573" y="590" as="sourcePoint" />
          </mxGeometry>
        </mxCell>
        <mxCell id="Ny8PjdBNpH2wIf7_yF6b-144" style="edgeStyle=orthogonalEdgeStyle;rounded=0;orthogonalLoop=1;jettySize=auto;html=1;exitX=0.5;exitY=1;exitDx=0;exitDy=0;" parent="1" source="Ny8PjdBNpH2wIf7_yF6b-143" target="Ny8PjdBNpH2wIf7_yF6b-145" edge="1">
          <mxGeometry relative="1" as="geometry">
            <mxPoint x="585.1428571428573" y="730" as="targetPoint" />
          </mxGeometry>
        </mxCell>
        <mxCell id="Ny8PjdBNpH2wIf7_yF6b-143" value="ODREĐIVANJE PRAVILA PRISTUPA" style="rounded=0;whiteSpace=wrap;html=1;" parent="1" vertex="1">
          <mxGeometry x="525.1428571428573" y="626.5" width="120" height="60" as="geometry" />
        </mxCell>
        <mxCell id="Ny8PjdBNpH2wIf7_yF6b-148" style="edgeStyle=orthogonalEdgeStyle;rounded=0;orthogonalLoop=1;jettySize=auto;html=1;exitX=1;exitY=0.5;exitDx=0;exitDy=0;entryX=0;entryY=0.5;entryDx=0;entryDy=0;" parent="1" source="Ny8PjdBNpH2wIf7_yF6b-145" target="Ny8PjdBNpH2wIf7_yF6b-147" edge="1">
          <mxGeometry relative="1" as="geometry" />
        </mxCell>
        <mxCell id="Ny8PjdBNpH2wIf7_yF6b-145" value="ODRŽAVANJE SUSTAVA" style="rounded=0;whiteSpace=wrap;html=1;" parent="1" vertex="1">
          <mxGeometry x="525.1428571428573" y="720" width="120" height="60" as="geometry" />
        </mxCell>
        <mxCell id="Ny8PjdBNpH2wIf7_yF6b-156" style="edgeStyle=orthogonalEdgeStyle;rounded=0;orthogonalLoop=1;jettySize=auto;html=1;exitX=0.5;exitY=1;exitDx=0;exitDy=0;entryX=0.25;entryY=0;entryDx=0;entryDy=0;" parent="1" source="Ny8PjdBNpH2wIf7_yF6b-147" target="Ny8PjdBNpH2wIf7_yF6b-149" edge="1">
          <mxGeometry relative="1" as="geometry">
            <Array as="points">
              <mxPoint x="820" y="780" />
            </Array>
          </mxGeometry>
        </mxCell>
        <mxCell id="Ny8PjdBNpH2wIf7_yF6b-147" value="PRAĆENJE SIGURNOSTI SUSTAVA" style="rounded=0;whiteSpace=wrap;html=1;" parent="1" vertex="1">
          <mxGeometry x="690" y="720" width="120" height="60" as="geometry" />
        </mxCell>
        <mxCell id="Ny8PjdBNpH2wIf7_yF6b-161" style="edgeStyle=orthogonalEdgeStyle;rounded=0;orthogonalLoop=1;jettySize=auto;html=1;exitX=0.5;exitY=1;exitDx=0;exitDy=0;entryX=0.5;entryY=0;entryDx=0;entryDy=0;" parent="1" source="Ny8PjdBNpH2wIf7_yF6b-149" target="Ny8PjdBNpH2wIf7_yF6b-160" edge="1">
          <mxGeometry relative="1" as="geometry" />
        </mxCell>
        <mxCell id="Ny8PjdBNpH2wIf7_yF6b-149" value="PRESTANAK AKTIVNOSTI" style="rounded=0;whiteSpace=wrap;html=1;" parent="1" vertex="1">
          <mxGeometry x="790" y="1810" width="120" height="60" as="geometry" />
        </mxCell>
        <mxCell id="Ny8PjdBNpH2wIf7_yF6b-160" value="" style="ellipse;html=1;shape=endState;fillColor=#000000;strokeColor=#ff0000;" parent="1" vertex="1">
          <mxGeometry x="815" y="1920" width="70" height="70" as="geometry" />
        </mxCell>
        <mxCell id="BUKlCv2cNw5aW9DpBKd9-1" value="ODREĐIVANJE PRAVILA SUSTAVA" style="rounded=0;whiteSpace=wrap;html=1;" vertex="1" parent="1">
          <mxGeometry x="525" y="530" width="120" height="60" as="geometry" />
        </mxCell>
      </root>
    </mxGraphModel>
  </diagram>
</mxfile>
